<svg width="137" height="36" viewBox="0 0 137 36" fill="none" xmlns="http://www.w3.org/2000/svg">
<path d="M0.122009 14.032C0.122009 11.6746 0.632009 9.57797 1.65201 7.74197C2.67201 5.8833 4.08868 4.44397 5.90201 3.42396C7.73801 2.3813 9.81201 1.85996 12.124 1.85996C14.9573 1.85996 17.3827 2.60796 19.4 4.10396C21.4173 5.59997 22.766 7.63997 23.446 10.224H17.054C16.578 9.22663 15.898 8.4673 15.014 7.94597C14.1527 7.42463 13.1667 7.16397 12.056 7.16397C10.2653 7.16397 8.81468 7.7873 7.70401 9.03397C6.59334 10.2806 6.03801 11.9466 6.03801 14.032C6.03801 16.1173 6.59334 17.7833 7.70401 19.03C8.81468 20.2766 10.2653 20.9 12.056 20.9C13.1667 20.9 14.1527 20.6393 15.014 20.118C15.898 19.5966 16.578 18.8373 17.054 17.84H23.446C22.766 20.424 21.4173 22.464 19.4 23.96C17.3827 25.4333 14.9573 26.17 12.124 26.17C9.81201 26.17 7.73801 25.66 5.90201 24.64C4.08868 23.5973 2.67201 22.158 1.65201 20.322C0.632009 18.486 0.122009 16.3893 0.122009 14.032Z" fill="#125EEB"/>
<path d="M28.0604 16.48C28.0604 14.5306 28.4231 12.8193 29.1484 11.346C29.8964 9.87263 30.9051 8.7393 32.1744 7.94597C33.4438 7.15263 34.8604 6.75596 36.4244 6.75596C37.7618 6.75596 38.9291 7.02796 39.9264 7.57196C40.9464 8.11597 41.7284 8.82997 42.2724 9.71397V7.02797H48.0864V26H42.2724V23.314C41.7058 24.198 40.9124 24.912 39.8924 25.456C38.8951 26 37.7278 26.272 36.3904 26.272C34.8491 26.272 33.4438 25.8753 32.1744 25.082C30.9051 24.266 29.8964 23.1213 29.1484 21.648C28.4231 20.152 28.0604 18.4293 28.0604 16.48ZM42.2724 16.514C42.2724 15.0633 41.8644 13.9186 41.0484 13.08C40.2551 12.2413 39.2804 11.822 38.1244 11.822C36.9684 11.822 35.9824 12.2413 35.1664 13.08C34.3731 13.896 33.9764 15.0293 33.9764 16.48C33.9764 17.9306 34.3731 19.0866 35.1664 19.948C35.9824 20.7866 36.9684 21.206 38.1244 21.206C39.2804 21.206 40.2551 20.7866 41.0484 19.948C41.8644 19.1093 42.2724 17.9646 42.2724 16.514Z" fill="#125EEB"/>
<path d="M60.3166 0.839966V26H54.5026V0.839966H60.3166Z" fill="#125EEB"/>
<path d="M90.948 6.82397C93.3053 6.82397 95.1753 7.53797 96.558 8.96596C97.9633 10.394 98.666 12.3773 98.666 14.916V26H92.886V15.698C92.886 14.474 92.5573 13.5333 91.9 12.876C91.2653 12.196 90.3813 11.856 89.248 11.856C88.1146 11.856 87.2193 12.196 86.562 12.876C85.9273 13.5333 85.61 14.474 85.61 15.698V26H79.83V15.698C79.83 14.474 79.5013 13.5333 78.844 12.876C78.2093 12.196 77.3253 11.856 76.192 11.856C75.0586 11.856 74.1633 12.196 73.506 12.876C72.8713 13.5333 72.554 14.474 72.554 15.698V26H66.74V7.02797H72.554V9.40796C73.1433 8.61463 73.914 7.9913 74.866 7.53796C75.818 7.06197 76.8946 6.82397 78.096 6.82397C79.524 6.82397 80.7933 7.12997 81.904 7.74197C83.0373 8.35397 83.9213 9.22663 84.556 10.36C85.2133 9.3173 86.1086 8.4673 87.242 7.80997C88.3753 7.15263 89.6106 6.82397 90.948 6.82397Z" fill="#125EEB"/>
<path d="M110.756 0.839966V26H104.942V0.839966H110.756Z" fill="#125EEB"/>
<path d="M136.559 7.02797L124.66 35.01H118.403L122.756 25.354L115.037 7.02797H121.531L125.917 18.894L130.27 7.02797H136.559Z" fill="#125EEB"/>
</svg>
