<svg width="237" height="212" viewBox="0 0 237 212" fill="none" xmlns="http://www.w3.org/2000/svg">
<path d="M15.2102 24.8636H21.483L24.6364 28.9205L27.7386 32.5341L33.5852 39.8636H26.6989L22.6761 34.9205L20.6136 31.9886L15.2102 24.8636ZM34.1136 19.5455C34.1136 23.3523 33.392 26.5909 31.9489 29.2614C30.517 31.9318 28.5625 33.9716 26.0852 35.3807C23.6193 36.7784 20.8466 37.4773 17.767 37.4773C14.6648 37.4773 11.8807 36.7727 9.41477 35.3636C6.94886 33.9545 5 31.9148 3.56818 29.2443C2.13636 26.5739 1.42045 23.3409 1.42045 19.5455C1.42045 15.7386 2.13636 12.5 3.56818 9.82955C5 7.15909 6.94886 5.125 9.41477 3.72727C11.8807 2.31818 14.6648 1.61364 17.767 1.61364C20.8466 1.61364 23.6193 2.31818 26.0852 3.72727C28.5625 5.125 30.517 7.15909 31.9489 9.82955C33.392 12.5 34.1136 15.7386 34.1136 19.5455ZM26.6307 19.5455C26.6307 17.0795 26.2614 15 25.5227 13.3068C24.7955 11.6136 23.767 10.3295 22.4375 9.45455C21.108 8.57955 19.5511 8.14205 17.767 8.14205C15.983 8.14205 14.4261 8.57955 13.0966 9.45455C11.767 10.3295 10.733 11.6136 9.99432 13.3068C9.26705 15 8.90341 17.0795 8.90341 19.5455C8.90341 22.0114 9.26705 24.0909 9.99432 25.7841C10.733 27.4773 11.767 28.7614 13.0966 29.6364C14.4261 30.5114 15.983 30.9489 17.767 30.9489C19.5511 30.9489 21.108 30.5114 22.4375 29.6364C23.767 28.7614 24.7955 27.4773 25.5227 25.7841C26.2614 24.0909 26.6307 22.0114 26.6307 19.5455ZM56.7144 25.8523V10.8182H63.9757V37H57.0041V32.2443H56.7314C56.1405 33.7784 55.1576 35.0114 53.7826 35.9432C52.4189 36.875 50.7541 37.3409 48.7882 37.3409C47.0382 37.3409 45.4985 36.9432 44.1689 36.1477C42.8394 35.3523 41.7996 34.2216 41.0496 32.7557C40.311 31.2898 39.936 29.5341 39.9246 27.4886V10.8182H47.186V26.1932C47.1973 27.7386 47.6121 28.9602 48.4303 29.858C49.2485 30.7557 50.3451 31.2045 51.7201 31.2045C52.5951 31.2045 53.4132 31.0057 54.1746 30.608C54.936 30.1989 55.5496 29.5966 56.0155 28.8011C56.4928 28.0057 56.7257 27.0227 56.7144 25.8523ZM70.264 37V10.8182H77.5253V37H70.264ZM73.9117 7.44318C72.8322 7.44318 71.906 7.08523 71.1333 6.36932C70.3719 5.64204 69.9912 4.77273 69.9912 3.76136C69.9912 2.76136 70.3719 1.90341 71.1333 1.1875C71.906 0.460226 72.8322 0.0965891 73.9117 0.0965891C74.9912 0.0965891 75.9117 0.460226 76.6731 1.1875C77.4458 1.90341 77.8322 2.76136 77.8322 3.76136C77.8322 4.77273 77.4458 5.64204 76.6731 6.36932C75.9117 7.08523 74.9912 7.44318 73.9117 7.44318ZM95.6517 37.5114C92.9698 37.5114 90.663 36.9432 88.7312 35.8068C86.8107 34.6591 85.3335 33.0682 84.2994 31.0341C83.2767 29 82.7653 26.6591 82.7653 24.0114C82.7653 21.3295 83.2823 18.9773 84.3164 16.9545C85.3619 14.9205 86.8448 13.3352 88.7653 12.1989C90.6857 11.0511 92.9698 10.4773 95.6176 10.4773C97.9017 10.4773 99.9017 10.892 101.618 11.7216C103.333 12.5511 104.691 13.7159 105.691 15.2159C106.691 16.7159 107.243 18.4773 107.345 20.5H100.493C100.299 19.1932 99.788 18.142 98.9585 17.3466C98.1403 16.5398 97.0664 16.1364 95.7369 16.1364C94.6119 16.1364 93.6289 16.4432 92.788 17.0568C91.9585 17.6591 91.3107 18.5398 90.8448 19.6989C90.3789 20.858 90.146 22.2614 90.146 23.9091C90.146 25.5795 90.3732 27 90.8278 28.1705C91.2937 29.3409 91.9471 30.233 92.788 30.8466C93.6289 31.4602 94.6119 31.767 95.7369 31.767C96.5664 31.767 97.3107 31.5966 97.9698 31.2557C98.6403 30.9148 99.1914 30.4205 99.6232 29.7727C100.066 29.1136 100.356 28.3239 100.493 27.4034H107.345C107.231 29.4034 106.686 31.1648 105.708 32.6875C104.743 34.1989 103.407 35.3807 101.703 36.233C99.9982 37.0852 97.9812 37.5114 95.6517 37.5114ZM119.054 29.4659L119.071 20.7557H120.127L128.514 10.8182H136.849L125.582 23.9773H123.86L119.054 29.4659ZM112.474 37V2.09091H119.735V37H112.474ZM128.838 37L121.133 25.5966L125.974 20.4659L137.343 37H128.838ZM148.153 2.09091V37H140.891V2.09091H148.153ZM158.933 46.8182C158.012 46.8182 157.148 46.7443 156.342 46.5966C155.546 46.4602 154.887 46.2841 154.364 46.0682L156.001 40.6477C156.853 40.9091 157.62 41.0511 158.302 41.0739C158.995 41.0966 159.592 40.9375 160.092 40.5966C160.603 40.2557 161.018 39.6761 161.336 38.858L161.762 37.75L152.37 10.8182H160.006L165.427 30.0455H165.7L171.171 10.8182H178.859L168.683 39.8295C168.194 41.2386 167.529 42.4659 166.688 43.5114C165.859 44.5682 164.808 45.3807 163.535 45.9489C162.262 46.5284 160.728 46.8182 158.933 46.8182ZM185.658 37.4432C184.533 37.4432 183.567 37.0455 182.761 36.25C181.965 35.4432 181.567 34.4773 181.567 33.3523C181.567 32.2386 181.965 31.2841 182.761 30.4886C183.567 29.6932 184.533 29.2955 185.658 29.2955C186.749 29.2955 187.704 29.6932 188.522 30.4886C189.34 31.2841 189.749 32.2386 189.749 33.3523C189.749 34.1023 189.556 34.7898 189.17 35.4148C188.795 36.0284 188.3 36.5227 187.687 36.8977C187.073 37.2614 186.397 37.4432 185.658 37.4432ZM20.9716 70.1307C20.8352 68.7557 20.25 67.6875 19.2159 66.9261C18.1818 66.1648 16.7784 65.7841 15.0057 65.7841C13.8011 65.7841 12.7841 65.9545 11.9545 66.2955C11.125 66.625 10.4886 67.0852 10.0455 67.6761C9.61364 68.267 9.39773 68.9375 9.39773 69.6875C9.375 70.3125 9.50568 70.858 9.78977 71.3239C10.0852 71.7898 10.4886 72.1932 11 72.5341C11.5114 72.8636 12.1023 73.1534 12.7727 73.4034C13.4432 73.642 14.1591 73.8466 14.9205 74.017L18.0568 74.767C19.5795 75.108 20.9773 75.5625 22.25 76.1307C23.5227 76.6989 24.625 77.3977 25.5568 78.2273C26.4886 79.0568 27.2102 80.0341 27.7216 81.1591C28.2443 82.2841 28.5114 83.5739 28.5227 85.0284C28.5114 87.1648 27.9659 89.017 26.8864 90.5852C25.8182 92.142 24.2727 93.3523 22.25 94.2159C20.2386 95.0682 17.8125 95.4943 14.9716 95.4943C12.1534 95.4943 9.69886 95.0625 7.60795 94.1989C5.52841 93.3352 3.90341 92.0568 2.73295 90.3636C1.57386 88.6591 0.965909 86.5511 0.909091 84.0398H8.05114C8.13068 85.2102 8.46591 86.1875 9.05682 86.9716C9.65909 87.7443 10.4602 88.3295 11.4602 88.7273C12.4716 89.1136 13.6136 89.3068 14.8864 89.3068C16.1364 89.3068 17.2216 89.125 18.142 88.7614C19.0739 88.3977 19.7955 87.892 20.3068 87.2443C20.8182 86.5966 21.0739 85.8523 21.0739 85.0114C21.0739 84.2273 20.8409 83.5682 20.375 83.0341C19.9205 82.5 19.25 82.0455 18.3636 81.6705C17.4886 81.2955 16.4148 80.9545 15.142 80.6477L11.3409 79.6932C8.39773 78.9773 6.07386 77.858 4.36932 76.3352C2.66477 74.8125 1.81818 72.7614 1.82955 70.1818C1.81818 68.0682 2.38068 66.2216 3.51705 64.642C4.66477 63.0625 6.23864 61.8295 8.23864 60.9432C10.2386 60.0568 12.5114 59.6136 15.0568 59.6136C17.6477 59.6136 19.9091 60.0568 21.8409 60.9432C23.7841 61.8295 25.2955 63.0625 26.375 64.642C27.4545 66.2216 28.0114 68.0511 28.0455 70.1307H20.9716ZM33.8309 95V68.8182H40.7513V73.4375H41.0581C41.6036 71.9034 42.5127 70.6932 43.7854 69.8068C45.0581 68.9205 46.5809 68.4773 48.3536 68.4773C50.149 68.4773 51.6774 68.9261 52.9388 69.8239C54.2002 70.7102 55.0411 71.9148 55.4615 73.4375H55.7343C56.2684 71.9375 57.2343 70.7386 58.632 69.8409C60.0411 68.9318 61.7059 68.4773 63.6263 68.4773C66.0695 68.4773 68.0524 69.2557 69.5752 70.8125C71.1093 72.358 71.8763 74.5511 71.8763 77.392V95H64.632V78.8239C64.632 77.3693 64.2456 76.2784 63.4729 75.5511C62.7002 74.8239 61.7343 74.4602 60.5752 74.4602C59.257 74.4602 58.2286 74.8807 57.4899 75.7216C56.7513 76.5511 56.382 77.6477 56.382 79.0114V95H49.3422V78.6705C49.3422 77.3864 48.9729 76.3636 48.2343 75.6023C47.507 74.8409 46.5468 74.4602 45.3536 74.4602C44.5468 74.4602 43.8195 74.6648 43.1718 75.0739C42.5354 75.4716 42.0297 76.0341 41.6547 76.7614C41.2797 77.4773 41.0922 78.3182 41.0922 79.2841V95H33.8309ZM89.9216 95.5114C87.2739 95.5114 84.9841 94.9489 83.0523 93.8239C81.1319 92.6875 79.6489 91.108 78.6035 89.0852C77.558 87.0511 77.0353 84.6932 77.0353 82.0114C77.0353 79.3068 77.558 76.9432 78.6035 74.9205C79.6489 72.8864 81.1319 71.3068 83.0523 70.1818C84.9841 69.0455 87.2739 68.4773 89.9216 68.4773C92.5694 68.4773 94.8535 69.0455 96.7739 70.1818C98.7057 71.3068 100.194 72.8864 101.24 74.9205C102.285 76.9432 102.808 79.3068 102.808 82.0114C102.808 84.6932 102.285 87.0511 101.24 89.0852C100.194 91.108 98.7057 92.6875 96.7739 93.8239C94.8535 94.9489 92.5694 95.5114 89.9216 95.5114ZM89.9557 89.8864C91.1603 89.8864 92.166 89.5455 92.9728 88.8636C93.7796 88.1705 94.3876 87.2273 94.7966 86.0341C95.2171 84.8409 95.4273 83.483 95.4273 81.9602C95.4273 80.4375 95.2171 79.0795 94.7966 77.8864C94.3876 76.6932 93.7796 75.75 92.9728 75.0568C92.166 74.3636 91.1603 74.017 89.9557 74.017C88.7398 74.017 87.7171 74.3636 86.8876 75.0568C86.0694 75.75 85.4501 76.6932 85.0296 77.8864C84.6205 79.0795 84.416 80.4375 84.416 81.9602C84.416 83.483 84.6205 84.8409 85.0296 86.0341C85.4501 87.2273 86.0694 88.1705 86.8876 88.8636C87.7171 89.5455 88.7398 89.8864 89.9557 89.8864ZM119.839 95.5114C117.191 95.5114 114.902 94.9489 112.97 93.8239C111.049 92.6875 109.566 91.108 108.521 89.0852C107.476 87.0511 106.953 84.6932 106.953 82.0114C106.953 79.3068 107.476 76.9432 108.521 74.9205C109.566 72.8864 111.049 71.3068 112.97 70.1818C114.902 69.0455 117.191 68.4773 119.839 68.4773C122.487 68.4773 124.771 69.0455 126.691 70.1818C128.623 71.3068 130.112 72.8864 131.157 74.9205C132.203 76.9432 132.726 79.3068 132.726 82.0114C132.726 84.6932 132.203 87.0511 131.157 89.0852C130.112 91.108 128.623 92.6875 126.691 93.8239C124.771 94.9489 122.487 95.5114 119.839 95.5114ZM119.873 89.8864C121.078 89.8864 122.083 89.5455 122.89 88.8636C123.697 88.1705 124.305 87.2273 124.714 86.0341C125.135 84.8409 125.345 83.483 125.345 81.9602C125.345 80.4375 125.135 79.0795 124.714 77.8864C124.305 76.6932 123.697 75.75 122.89 75.0568C122.083 74.3636 121.078 74.017 119.873 74.017C118.657 74.017 117.635 74.3636 116.805 75.0568C115.987 75.75 115.368 76.6932 114.947 77.8864C114.538 79.0795 114.333 80.4375 114.333 81.9602C114.333 83.483 114.538 84.8409 114.947 86.0341C115.368 87.2273 115.987 88.1705 116.805 88.8636C117.635 89.5455 118.657 89.8864 119.873 89.8864ZM151.853 68.8182V74.2727H136.086V68.8182H151.853ZM139.666 62.5455H146.927V86.9545C146.927 87.625 147.029 88.1477 147.234 88.5227C147.438 88.8864 147.723 89.142 148.086 89.2898C148.461 89.4375 148.893 89.5114 149.382 89.5114C149.723 89.5114 150.063 89.483 150.404 89.4261C150.745 89.358 151.007 89.3068 151.188 89.2727L152.331 94.6761C151.967 94.7898 151.456 94.9205 150.796 95.0682C150.137 95.2273 149.336 95.3239 148.393 95.358C146.643 95.4261 145.109 95.1932 143.791 94.6591C142.484 94.125 141.467 93.2955 140.74 92.1705C140.012 91.0455 139.654 89.625 139.666 87.9091V62.5455ZM164.887 79.8636V95H157.626V60.0909H164.683V73.4375H164.989C165.58 71.892 166.535 70.6818 167.853 69.8068C169.171 68.9205 170.825 68.4773 172.813 68.4773C174.632 68.4773 176.217 68.875 177.569 69.6705C178.933 70.4545 179.989 71.5852 180.739 73.0625C181.501 74.5284 181.876 76.2841 181.864 78.3295V95H174.603V79.625C174.614 78.0114 174.205 76.7557 173.376 75.858C172.558 74.9602 171.41 74.5114 169.933 74.5114C168.944 74.5114 168.069 74.7216 167.308 75.142C166.558 75.5625 165.967 76.1761 165.535 76.983C165.114 77.7784 164.899 78.7386 164.887 79.8636ZM195.32 60.0909V95H188.059V60.0909H195.32ZM206.1 104.818C205.18 104.818 204.316 104.744 203.509 104.597C202.714 104.46 202.055 104.284 201.532 104.068L203.168 98.6477C204.021 98.9091 204.788 99.0511 205.469 99.0739C206.163 99.0966 206.759 98.9375 207.259 98.5966C207.771 98.2557 208.185 97.6761 208.503 96.858L208.93 95.75L199.538 68.8182H207.174L212.594 88.0455H212.867L218.339 68.8182H226.026L215.85 97.8295C215.361 99.2386 214.697 100.466 213.856 101.511C213.026 102.568 211.975 103.381 210.702 103.949C209.43 104.528 207.896 104.818 206.1 104.818ZM232.826 95.4432C231.701 95.4432 230.735 95.0455 229.928 94.25C229.133 93.4432 228.735 92.4773 228.735 91.3523C228.735 90.2386 229.133 89.2841 229.928 88.4886C230.735 87.6932 231.701 87.2955 232.826 87.2955C233.917 87.2955 234.871 87.6932 235.689 88.4886C236.508 89.2841 236.917 90.2386 236.917 91.3523C236.917 92.1023 236.724 92.7898 236.337 93.4148C235.962 94.0284 235.468 94.5227 234.854 94.8977C234.241 95.2614 233.564 95.4432 232.826 95.4432Z" fill="black"/>
<path d="M32.8352 130.312H25.3693C25.233 129.347 24.9545 128.489 24.5341 127.739C24.1136 126.977 23.5739 126.33 22.9148 125.795C22.2557 125.261 21.4943 124.852 20.6307 124.568C19.7784 124.284 18.8523 124.142 17.8523 124.142C16.0455 124.142 14.4716 124.591 13.1307 125.489C11.7898 126.375 10.75 127.67 10.0114 129.375C9.27273 131.068 8.90341 133.125 8.90341 135.545C8.90341 138.034 9.27273 140.125 10.0114 141.818C10.7614 143.511 11.8068 144.79 13.1477 145.653C14.4886 146.517 16.0398 146.949 17.8011 146.949C18.7898 146.949 19.7045 146.818 20.5455 146.557C21.3977 146.295 22.1534 145.915 22.8125 145.415C23.4716 144.903 24.017 144.284 24.4489 143.557C24.892 142.83 25.1989 142 25.3693 141.068L32.8352 141.102C32.642 142.705 32.1591 144.25 31.3864 145.739C30.625 147.216 29.5966 148.54 28.3011 149.71C27.017 150.869 25.483 151.79 23.6989 152.472C21.9261 153.142 19.9205 153.477 17.6818 153.477C14.5682 153.477 11.7841 152.773 9.32955 151.364C6.88636 149.955 4.95455 147.915 3.53409 145.244C2.125 142.574 1.42045 139.341 1.42045 135.545C1.42045 131.739 2.13636 128.5 3.56818 125.83C5 123.159 6.94318 121.125 9.39773 119.727C11.8523 118.318 14.6136 117.614 17.6818 117.614C19.7045 117.614 21.5795 117.898 23.3068 118.466C25.0455 119.034 26.5852 119.864 27.9261 120.955C29.267 122.034 30.358 123.358 31.1989 124.926C32.0511 126.494 32.5966 128.29 32.8352 130.312ZM45.9374 153.494C44.2669 153.494 42.7783 153.205 41.4715 152.625C40.1647 152.034 39.1306 151.165 38.3692 150.017C37.6192 148.858 37.2442 147.415 37.2442 145.688C37.2442 144.233 37.5112 143.011 38.0453 142.023C38.5794 141.034 39.3067 140.239 40.2272 139.636C41.1476 139.034 42.1931 138.58 43.3635 138.273C44.5453 137.966 45.784 137.75 47.0794 137.625C48.6022 137.466 49.8294 137.318 50.7612 137.182C51.6931 137.034 52.3692 136.818 52.7897 136.534C53.2101 136.25 53.4203 135.83 53.4203 135.273V135.17C53.4203 134.091 53.0794 133.256 52.3976 132.665C51.7272 132.074 50.7726 131.778 49.534 131.778C48.2272 131.778 47.1874 132.068 46.4147 132.648C45.6419 133.216 45.1306 133.932 44.8806 134.795L38.1647 134.25C38.5056 132.659 39.176 131.284 40.176 130.125C41.176 128.955 42.4658 128.057 44.0453 127.432C45.6362 126.795 47.4772 126.477 49.5681 126.477C51.0226 126.477 52.4147 126.648 53.7442 126.989C55.0851 127.33 56.2726 127.858 57.3067 128.574C58.3522 129.29 59.176 130.21 59.7783 131.335C60.3806 132.449 60.6817 133.784 60.6817 135.341V153H53.7953V149.369H53.5908C53.1703 150.188 52.6078 150.909 51.9033 151.534C51.1987 152.148 50.3522 152.631 49.3635 152.983C48.3749 153.324 47.2328 153.494 45.9374 153.494ZM48.0169 148.483C49.0851 148.483 50.0283 148.273 50.8465 147.852C51.6647 147.42 52.3067 146.841 52.7726 146.114C53.2385 145.386 53.4715 144.562 53.4715 143.642V140.864C53.2442 141.011 52.9317 141.148 52.534 141.273C52.1476 141.386 51.7101 141.494 51.2215 141.597C50.7328 141.687 50.2442 141.773 49.7556 141.852C49.2669 141.92 48.8237 141.983 48.426 142.04C47.5738 142.165 46.8294 142.364 46.1931 142.636C45.5567 142.909 45.0624 143.278 44.7101 143.744C44.3578 144.199 44.1817 144.767 44.1817 145.449C44.1817 146.438 44.5397 147.193 45.2556 147.716C45.9828 148.227 46.9033 148.483 48.0169 148.483ZM74.0566 118.091V153H66.7952V118.091H74.0566ZM80.3534 153V126.818H87.2738V131.438H87.5806C88.1261 129.903 89.0352 128.693 90.3079 127.807C91.5806 126.92 93.1034 126.477 94.8761 126.477C96.6715 126.477 98.1999 126.926 99.4613 127.824C100.723 128.71 101.564 129.915 101.984 131.438H102.257C102.791 129.938 103.757 128.739 105.154 127.841C106.564 126.932 108.228 126.477 110.149 126.477C112.592 126.477 114.575 127.256 116.098 128.812C117.632 130.358 118.399 132.551 118.399 135.392V153H111.154V136.824C111.154 135.369 110.768 134.278 109.995 133.551C109.223 132.824 108.257 132.46 107.098 132.46C105.779 132.46 104.751 132.881 104.012 133.722C103.274 134.551 102.904 135.648 102.904 137.011V153H95.8647V136.67C95.8647 135.386 95.4954 134.364 94.7568 133.602C94.0295 132.841 93.0693 132.46 91.8761 132.46C91.0693 132.46 90.342 132.665 89.6943 133.074C89.0579 133.472 88.5522 134.034 88.1772 134.761C87.8022 135.477 87.6147 136.318 87.6147 137.284V153H80.3534ZM131.876 118.091V153H124.615V118.091H131.876ZM142.656 162.818C141.735 162.818 140.872 162.744 140.065 162.597C139.269 162.46 138.61 162.284 138.087 162.068L139.724 156.648C140.576 156.909 141.343 157.051 142.025 157.074C142.718 157.097 143.315 156.938 143.815 156.597C144.326 156.256 144.741 155.676 145.059 154.858L145.485 153.75L136.093 126.818H143.73L149.15 146.045H149.423L154.894 126.818H162.582L152.406 155.83C151.917 157.239 151.252 158.466 150.411 159.511C149.582 160.568 148.531 161.381 147.258 161.949C145.985 162.528 144.451 162.818 142.656 162.818ZM2.03409 211V176.091H15.8068C18.4432 176.091 20.6932 176.562 22.5568 177.506C24.4318 178.437 25.858 179.761 26.8352 181.477C27.8239 183.182 28.3182 185.187 28.3182 187.494C28.3182 189.812 27.8182 191.807 26.8182 193.477C25.8182 195.136 24.3693 196.409 22.4716 197.295C20.5852 198.182 18.3011 198.625 15.6193 198.625H6.39773V192.693H14.4261C15.8352 192.693 17.0057 192.5 17.9375 192.114C18.8693 191.727 19.5625 191.148 20.017 190.375C20.483 189.602 20.7159 188.642 20.7159 187.494C20.7159 186.335 20.483 185.358 20.017 184.562C19.5625 183.767 18.8636 183.165 17.9205 182.756C16.9886 182.335 15.8125 182.125 14.392 182.125H9.41477V211H2.03409ZM20.8864 195.114L29.5625 211H21.4148L12.9261 195.114H20.8864ZM45.3877 211.511C42.6945 211.511 40.3763 210.966 38.4331 209.875C36.5013 208.773 35.0127 207.216 33.9672 205.205C32.9218 203.182 32.399 200.79 32.399 198.028C32.399 195.335 32.9218 192.972 33.9672 190.938C35.0127 188.903 36.4843 187.318 38.382 186.182C40.2911 185.045 42.5297 184.477 45.0979 184.477C46.8252 184.477 48.4331 184.756 49.9218 185.312C51.4218 185.858 52.7286 186.682 53.8422 187.784C54.9672 188.886 55.8422 190.273 56.4672 191.943C57.0922 193.602 57.4047 195.545 57.4047 197.773V199.767H35.2968V195.267H50.5695C50.5695 194.222 50.3422 193.295 49.8877 192.489C49.4331 191.682 48.8024 191.051 47.9956 190.597C47.2002 190.131 46.274 189.898 45.2172 189.898C44.1149 189.898 43.1377 190.153 42.2854 190.665C41.4445 191.165 40.7854 191.841 40.3081 192.693C39.8309 193.534 39.5865 194.472 39.5752 195.506V199.784C39.5752 201.08 39.8138 202.199 40.2911 203.142C40.7797 204.085 41.4672 204.812 42.3536 205.324C43.2399 205.835 44.2911 206.091 45.507 206.091C46.3138 206.091 47.0524 205.977 47.7229 205.75C48.3934 205.523 48.9672 205.182 49.4445 204.727C49.9218 204.273 50.2854 203.716 50.5354 203.057L57.2513 203.5C56.9104 205.114 56.2115 206.523 55.1547 207.727C54.1093 208.92 52.757 209.852 51.0979 210.523C49.4502 211.182 47.5468 211.511 45.3877 211.511ZM84.4074 192.284L77.7597 192.693C77.6461 192.125 77.4018 191.614 77.0268 191.159C76.6518 190.693 76.1574 190.324 75.5438 190.051C74.9415 189.767 74.2199 189.625 73.379 189.625C72.254 189.625 71.3052 189.864 70.5324 190.341C69.7597 190.807 69.3734 191.432 69.3734 192.216C69.3734 192.841 69.6234 193.369 70.1234 193.801C70.6234 194.233 71.4813 194.58 72.6972 194.841L77.4359 195.795C79.9813 196.318 81.879 197.159 83.129 198.318C84.379 199.477 85.004 201 85.004 202.886C85.004 204.602 84.4984 206.108 83.487 207.403C82.487 208.699 81.112 209.71 79.362 210.438C77.6234 211.153 75.6177 211.511 73.3449 211.511C69.879 211.511 67.1177 210.79 65.0609 209.347C63.0154 207.892 61.8165 205.915 61.4643 203.415L68.6063 203.04C68.8222 204.097 69.3449 204.903 70.1745 205.46C71.004 206.006 72.0665 206.278 73.362 206.278C74.6347 206.278 75.6574 206.034 76.4302 205.545C77.2143 205.045 77.612 204.403 77.6234 203.619C77.612 202.96 77.3336 202.42 76.7881 202C76.2427 201.568 75.4018 201.239 74.2654 201.011L69.7313 200.108C67.1745 199.597 65.2711 198.71 64.0211 197.449C62.7824 196.187 62.1631 194.58 62.1631 192.625C62.1631 190.943 62.6177 189.494 63.5268 188.278C64.4472 187.062 65.737 186.125 67.3961 185.466C69.0665 184.807 71.0211 184.477 73.2597 184.477C76.5665 184.477 79.1688 185.176 81.0665 186.574C82.9756 187.972 84.0893 189.875 84.4074 192.284ZM101.886 211.511C99.2383 211.511 96.9485 210.949 95.0167 209.824C93.0963 208.687 91.6133 207.108 90.5678 205.085C89.5224 203.051 88.9997 200.693 88.9997 198.011C88.9997 195.307 89.5224 192.943 90.5678 190.92C91.6133 188.886 93.0963 187.307 95.0167 186.182C96.9485 185.045 99.2383 184.477 101.886 184.477C104.534 184.477 106.818 185.045 108.738 186.182C110.67 187.307 112.159 188.886 113.204 190.92C114.25 192.943 114.772 195.307 114.772 198.011C114.772 200.693 114.25 203.051 113.204 205.085C112.159 207.108 110.67 208.687 108.738 209.824C106.818 210.949 104.534 211.511 101.886 211.511ZM101.92 205.886C103.125 205.886 104.13 205.545 104.937 204.864C105.744 204.17 106.352 203.227 106.761 202.034C107.181 200.841 107.392 199.483 107.392 197.96C107.392 196.438 107.181 195.08 106.761 193.886C106.352 192.693 105.744 191.75 104.937 191.057C104.13 190.364 103.125 190.017 101.92 190.017C100.704 190.017 99.6815 190.364 98.8519 191.057C98.0338 191.75 97.4144 192.693 96.994 193.886C96.5849 195.08 96.3803 196.438 96.3803 197.96C96.3803 199.483 96.5849 200.841 96.994 202.034C97.4144 203.227 98.0338 204.17 98.8519 204.864C99.6815 205.545 100.704 205.886 101.92 205.886ZM127.235 176.091V211H119.974V176.091H127.235ZM157.941 184.818L148.788 211H140.606L131.453 184.818H139.123L144.561 203.551H144.833L150.254 184.818H157.941ZM173.225 211.511C170.532 211.511 168.214 210.966 166.271 209.875C164.339 208.773 162.85 207.216 161.805 205.205C160.759 203.182 160.237 200.79 160.237 198.028C160.237 195.335 160.759 192.972 161.805 190.938C162.85 188.903 164.322 187.318 166.219 186.182C168.129 185.045 170.367 184.477 172.935 184.477C174.663 184.477 176.271 184.756 177.759 185.312C179.259 185.858 180.566 186.682 181.68 187.784C182.805 188.886 183.68 190.273 184.305 191.943C184.93 193.602 185.242 195.545 185.242 197.773V199.767H163.134V195.267H178.407C178.407 194.222 178.18 193.295 177.725 192.489C177.271 191.682 176.64 191.051 175.833 190.597C175.038 190.131 174.112 189.898 173.055 189.898C171.952 189.898 170.975 190.153 170.123 190.665C169.282 191.165 168.623 191.841 168.146 192.693C167.668 193.534 167.424 194.472 167.413 195.506V199.784C167.413 201.08 167.651 202.199 168.129 203.142C168.617 204.085 169.305 204.812 170.191 205.324C171.077 205.835 172.129 206.091 173.344 206.091C174.151 206.091 174.89 205.977 175.56 205.75C176.231 205.523 176.805 205.182 177.282 204.727C177.759 204.273 178.123 203.716 178.373 203.057L185.089 203.5C184.748 205.114 184.049 206.523 182.992 207.727C181.947 208.92 180.594 209.852 178.935 210.523C177.288 211.182 175.384 211.511 173.225 211.511ZM200.109 211.426C198.12 211.426 196.319 210.915 194.705 209.892C193.103 208.858 191.83 207.341 190.887 205.341C189.955 203.33 189.489 200.864 189.489 197.943C189.489 194.943 189.972 192.449 190.938 190.46C191.904 188.46 193.188 186.966 194.79 185.977C196.404 184.977 198.171 184.477 200.092 184.477C201.557 184.477 202.779 184.727 203.756 185.227C204.745 185.716 205.54 186.33 206.143 187.068C206.756 187.795 207.222 188.511 207.54 189.216H207.762V176.091H215.006V211H207.847V206.807H207.54C207.199 207.534 206.717 208.256 206.092 208.972C205.478 209.676 204.677 210.261 203.688 210.727C202.711 211.193 201.518 211.426 200.109 211.426ZM202.41 205.648C203.58 205.648 204.569 205.33 205.376 204.693C206.194 204.045 206.819 203.142 207.251 201.983C207.694 200.824 207.915 199.466 207.915 197.909C207.915 196.352 207.699 195 207.268 193.852C206.836 192.705 206.211 191.818 205.393 191.193C204.574 190.568 203.58 190.256 202.41 190.256C201.217 190.256 200.211 190.58 199.393 191.227C198.574 191.875 197.955 192.773 197.535 193.92C197.114 195.068 196.904 196.398 196.904 197.909C196.904 199.432 197.114 200.778 197.535 201.949C197.967 203.108 198.586 204.017 199.393 204.676C200.211 205.324 201.217 205.648 202.41 205.648ZM225.701 211.443C224.576 211.443 223.61 211.045 222.803 210.25C222.008 209.443 221.61 208.477 221.61 207.352C221.61 206.239 222.008 205.284 222.803 204.489C223.61 203.693 224.576 203.295 225.701 203.295C226.792 203.295 227.746 203.693 228.564 204.489C229.383 205.284 229.792 206.239 229.792 207.352C229.792 208.102 229.599 208.79 229.212 209.415C228.837 210.028 228.343 210.523 227.729 210.898C227.116 211.261 226.439 211.443 225.701 211.443Z" fill="#319795"/>
</svg>
